<mxfile host="app.diagrams.net" modified="2023-07-19T09:18:42.407Z" agent="Mozilla/5.0 (Windows NT 10.0; Win64; x64) AppleWebKit/537.36 (KHTML, like Gecko) Chrome/115.0.0.0 Safari/537.36" etag="4cfoQlD9o6ysYkA_m6W-" version="21.6.2" type="device">
  <diagram name="Page-1" id="v06mjtkmMMoa4A4iAqT3">
    <mxGraphModel dx="1434" dy="693" grid="1" gridSize="10" guides="1" tooltips="1" connect="1" arrows="1" fold="1" page="1" pageScale="1" pageWidth="827" pageHeight="1169" math="0" shadow="0">
      <root>
        <mxCell id="0" />
        <mxCell id="1" parent="0" />
        <mxCell id="2Ikd2-YFZCmwzEK3aNmI-1" value="사용자" style="shape=umlActor;verticalLabelPosition=bottom;verticalAlign=top;html=1;outlineConnect=0;" parent="1" vertex="1">
          <mxGeometry x="20" y="200" width="30" height="60" as="geometry" />
        </mxCell>
        <mxCell id="2Ikd2-YFZCmwzEK3aNmI-2" value="전국이미지지도&lt;br&gt;보기" style="ellipse;whiteSpace=wrap;html=1;" parent="1" vertex="1">
          <mxGeometry x="90" y="200" width="140" height="70" as="geometry" />
        </mxCell>
        <mxCell id="2Ikd2-YFZCmwzEK3aNmI-3" value="특,광역시&lt;br&gt;선택" style="ellipse;whiteSpace=wrap;html=1;" parent="1" vertex="1">
          <mxGeometry x="390" y="360" width="140" height="70" as="geometry" />
        </mxCell>
        <mxCell id="2Ikd2-YFZCmwzEK3aNmI-5" value="도 선택" style="ellipse;whiteSpace=wrap;html=1;" parent="1" vertex="1">
          <mxGeometry x="430" y="100" width="140" height="70" as="geometry" />
        </mxCell>
        <mxCell id="2Ikd2-YFZCmwzEK3aNmI-6" value="선택한 지역&lt;br&gt;좌표의&lt;br&gt;카카오지도(API)" style="ellipse;whiteSpace=wrap;html=1;" parent="1" vertex="1">
          <mxGeometry x="670" y="370" width="140" height="70" as="geometry" />
        </mxCell>
        <mxCell id="2Ikd2-YFZCmwzEK3aNmI-10" value="" style="endArrow=open;endFill=1;endSize=12;html=1;rounded=0;exitX=1;exitY=0.5;exitDx=0;exitDy=0;entryX=0.007;entryY=0.386;entryDx=0;entryDy=0;entryPerimeter=0;" parent="1" source="2Ikd2-YFZCmwzEK3aNmI-3" target="2Ikd2-YFZCmwzEK3aNmI-6" edge="1">
          <mxGeometry width="160" relative="1" as="geometry">
            <mxPoint x="330" y="360" as="sourcePoint" />
            <mxPoint x="540" y="210" as="targetPoint" />
          </mxGeometry>
        </mxCell>
        <mxCell id="2Ikd2-YFZCmwzEK3aNmI-15" value="지역선택" style="ellipse;whiteSpace=wrap;html=1;" parent="1" vertex="1">
          <mxGeometry x="290" y="200" width="140" height="70" as="geometry" />
        </mxCell>
        <mxCell id="2Ikd2-YFZCmwzEK3aNmI-16" value="&amp;lt;&amp;lt;extend&amp;gt;&amp;gt;" style="html=1;verticalAlign=bottom;labelBackgroundColor=none;endArrow=open;endFill=0;dashed=1;rounded=0;entryX=1;entryY=0.5;entryDx=0;entryDy=0;exitX=0;exitY=0.5;exitDx=0;exitDy=0;" parent="1" source="2Ikd2-YFZCmwzEK3aNmI-15" target="2Ikd2-YFZCmwzEK3aNmI-2" edge="1">
          <mxGeometry width="160" relative="1" as="geometry">
            <mxPoint x="330" y="360" as="sourcePoint" />
            <mxPoint x="490" y="360" as="targetPoint" />
          </mxGeometry>
        </mxCell>
        <mxCell id="2Ikd2-YFZCmwzEK3aNmI-17" value="" style="endArrow=block;startArrow=none;endFill=0;startFill=0;endSize=8;html=1;verticalAlign=bottom;dashed=1;labelBackgroundColor=none;rounded=0;entryX=1;entryY=1;entryDx=0;entryDy=0;" parent="1" source="2Ikd2-YFZCmwzEK3aNmI-3" target="2Ikd2-YFZCmwzEK3aNmI-15" edge="1">
          <mxGeometry width="160" relative="1" as="geometry">
            <mxPoint x="330" y="360" as="sourcePoint" />
            <mxPoint x="490" y="360" as="targetPoint" />
          </mxGeometry>
        </mxCell>
        <mxCell id="2Ikd2-YFZCmwzEK3aNmI-18" value="" style="endArrow=block;startArrow=none;endFill=0;startFill=0;endSize=8;html=1;verticalAlign=bottom;dashed=1;labelBackgroundColor=none;rounded=0;entryX=1;entryY=0;entryDx=0;entryDy=0;exitX=0;exitY=0.5;exitDx=0;exitDy=0;" parent="1" source="2Ikd2-YFZCmwzEK3aNmI-5" target="2Ikd2-YFZCmwzEK3aNmI-15" edge="1">
          <mxGeometry width="160" relative="1" as="geometry">
            <mxPoint x="360" y="380" as="sourcePoint" />
            <mxPoint x="430" y="225" as="targetPoint" />
          </mxGeometry>
        </mxCell>
        <mxCell id="2Ikd2-YFZCmwzEK3aNmI-19" value="세부이미지지도&lt;br&gt;보기" style="ellipse;whiteSpace=wrap;html=1;" parent="1" vertex="1">
          <mxGeometry x="510" y="210" width="140" height="70" as="geometry" />
        </mxCell>
        <mxCell id="2Ikd2-YFZCmwzEK3aNmI-20" value="" style="endArrow=open;endFill=1;endSize=12;html=1;rounded=0;exitX=1;exitY=0.5;exitDx=0;exitDy=0;" parent="1" source="2Ikd2-YFZCmwzEK3aNmI-5" target="2Ikd2-YFZCmwzEK3aNmI-19" edge="1">
          <mxGeometry width="160" relative="1" as="geometry">
            <mxPoint x="600" y="165" as="sourcePoint" />
            <mxPoint x="698" y="167" as="targetPoint" />
          </mxGeometry>
        </mxCell>
        <mxCell id="2Ikd2-YFZCmwzEK3aNmI-21" value="세부지역(시,군)&lt;br&gt;선택" style="ellipse;whiteSpace=wrap;html=1;" parent="1" vertex="1">
          <mxGeometry x="670" y="195" width="140" height="70" as="geometry" />
        </mxCell>
        <mxCell id="2Ikd2-YFZCmwzEK3aNmI-22" value="&amp;lt;&amp;lt;extend&amp;gt;&amp;gt;" style="html=1;verticalAlign=bottom;labelBackgroundColor=none;endArrow=open;endFill=0;dashed=1;rounded=0;entryX=1;entryY=0.5;entryDx=0;entryDy=0;exitX=0;exitY=0.5;exitDx=0;exitDy=0;" parent="1" source="2Ikd2-YFZCmwzEK3aNmI-21" target="2Ikd2-YFZCmwzEK3aNmI-19" edge="1">
          <mxGeometry width="160" relative="1" as="geometry">
            <mxPoint x="300" y="245" as="sourcePoint" />
            <mxPoint x="240" y="245" as="targetPoint" />
          </mxGeometry>
        </mxCell>
        <mxCell id="2Ikd2-YFZCmwzEK3aNmI-23" value="" style="endArrow=open;endFill=1;endSize=12;html=1;rounded=0;entryX=0.5;entryY=0;entryDx=0;entryDy=0;" parent="1" source="2Ikd2-YFZCmwzEK3aNmI-21" target="2Ikd2-YFZCmwzEK3aNmI-6" edge="1">
          <mxGeometry width="160" relative="1" as="geometry">
            <mxPoint x="590" y="325" as="sourcePoint" />
            <mxPoint x="664" y="368" as="targetPoint" />
          </mxGeometry>
        </mxCell>
        <mxCell id="2Ikd2-YFZCmwzEK3aNmI-26" value="장소종류&lt;br&gt;선택" style="ellipse;whiteSpace=wrap;html=1;" parent="1" vertex="1">
          <mxGeometry x="690" y="500" width="140" height="70" as="geometry" />
        </mxCell>
        <mxCell id="2Ikd2-YFZCmwzEK3aNmI-27" value="관광지선택" style="ellipse;whiteSpace=wrap;html=1;" parent="1" vertex="1">
          <mxGeometry x="600" y="640" width="140" height="70" as="geometry" />
        </mxCell>
        <mxCell id="2Ikd2-YFZCmwzEK3aNmI-28" value="맛집선택" style="ellipse;whiteSpace=wrap;html=1;" parent="1" vertex="1">
          <mxGeometry x="750" y="640" width="140" height="70" as="geometry" />
        </mxCell>
        <mxCell id="2Ikd2-YFZCmwzEK3aNmI-29" value="축제선택" style="ellipse;whiteSpace=wrap;html=1;" parent="1" vertex="1">
          <mxGeometry x="900" y="600" width="140" height="70" as="geometry" />
        </mxCell>
        <mxCell id="2Ikd2-YFZCmwzEK3aNmI-30" value="전체선택" style="ellipse;whiteSpace=wrap;html=1;" parent="1" vertex="1">
          <mxGeometry x="480" y="585" width="140" height="70" as="geometry" />
        </mxCell>
        <mxCell id="2Ikd2-YFZCmwzEK3aNmI-31" value="" style="endArrow=block;startArrow=none;endFill=0;startFill=0;endSize=8;html=1;verticalAlign=bottom;dashed=1;labelBackgroundColor=none;rounded=0;exitX=1;exitY=0;exitDx=0;exitDy=0;" parent="1" source="2Ikd2-YFZCmwzEK3aNmI-27" target="2Ikd2-YFZCmwzEK3aNmI-26" edge="1">
          <mxGeometry width="160" relative="1" as="geometry">
            <mxPoint x="728" y="661" as="sourcePoint" />
            <mxPoint x="690" y="560" as="targetPoint" />
          </mxGeometry>
        </mxCell>
        <mxCell id="2Ikd2-YFZCmwzEK3aNmI-32" value="" style="endArrow=block;startArrow=none;endFill=0;startFill=0;endSize=8;html=1;verticalAlign=bottom;dashed=1;labelBackgroundColor=none;rounded=0;exitX=0.979;exitY=0.414;exitDx=0;exitDy=0;entryX=0.057;entryY=0.757;entryDx=0;entryDy=0;exitPerimeter=0;entryPerimeter=0;" parent="1" source="2Ikd2-YFZCmwzEK3aNmI-30" target="2Ikd2-YFZCmwzEK3aNmI-26" edge="1">
          <mxGeometry width="160" relative="1" as="geometry">
            <mxPoint x="729" y="640" as="sourcePoint" />
            <mxPoint x="783" y="577" as="targetPoint" />
          </mxGeometry>
        </mxCell>
        <mxCell id="2Ikd2-YFZCmwzEK3aNmI-33" value="" style="endArrow=block;startArrow=none;endFill=0;startFill=0;endSize=8;html=1;verticalAlign=bottom;dashed=1;labelBackgroundColor=none;rounded=0;exitX=0.5;exitY=0;exitDx=0;exitDy=0;entryX=0.636;entryY=1.043;entryDx=0;entryDy=0;entryPerimeter=0;" parent="1" source="2Ikd2-YFZCmwzEK3aNmI-28" target="2Ikd2-YFZCmwzEK3aNmI-26" edge="1">
          <mxGeometry width="160" relative="1" as="geometry">
            <mxPoint x="637" y="589" as="sourcePoint" />
            <mxPoint x="740" y="545" as="targetPoint" />
          </mxGeometry>
        </mxCell>
        <mxCell id="2Ikd2-YFZCmwzEK3aNmI-34" value="" style="endArrow=block;startArrow=none;endFill=0;startFill=0;endSize=8;html=1;verticalAlign=bottom;dashed=1;labelBackgroundColor=none;rounded=0;exitX=0.207;exitY=0.071;exitDx=0;exitDy=0;entryX=0.914;entryY=0.786;entryDx=0;entryDy=0;entryPerimeter=0;exitPerimeter=0;" parent="1" source="2Ikd2-YFZCmwzEK3aNmI-29" target="2Ikd2-YFZCmwzEK3aNmI-26" edge="1">
          <mxGeometry width="160" relative="1" as="geometry">
            <mxPoint x="840" y="640" as="sourcePoint" />
            <mxPoint x="829" y="583" as="targetPoint" />
          </mxGeometry>
        </mxCell>
        <mxCell id="2Ikd2-YFZCmwzEK3aNmI-35" value="&amp;lt;&amp;lt;extend&amp;gt;&amp;gt;" style="html=1;verticalAlign=bottom;labelBackgroundColor=none;endArrow=open;endFill=0;dashed=1;rounded=0;entryX=0.5;entryY=1;entryDx=0;entryDy=0;exitX=0.45;exitY=-0.014;exitDx=0;exitDy=0;exitPerimeter=0;" parent="1" source="2Ikd2-YFZCmwzEK3aNmI-26" target="2Ikd2-YFZCmwzEK3aNmI-6" edge="1">
          <mxGeometry width="160" relative="1" as="geometry">
            <mxPoint x="560" y="470" as="sourcePoint" />
            <mxPoint x="500" y="470" as="targetPoint" />
          </mxGeometry>
        </mxCell>
        <mxCell id="waoWVKaGyjvMjB5tHphy-2" value="" style="endArrow=open;endFill=1;endSize=12;html=1;rounded=0;" edge="1" parent="1" source="2Ikd2-YFZCmwzEK3aNmI-1" target="2Ikd2-YFZCmwzEK3aNmI-2">
          <mxGeometry width="160" relative="1" as="geometry">
            <mxPoint x="650" y="460" as="sourcePoint" />
            <mxPoint x="810" y="460" as="targetPoint" />
          </mxGeometry>
        </mxCell>
      </root>
    </mxGraphModel>
  </diagram>
</mxfile>
